# xmcd
#
# Track frame offsets: 
#        182
#        59980
#        115910
#        145630
#        175205
#        196952
#        215620
#        237400
#        255087
#        274432
#        290700
#        319022
#
# Disc length: 4527 seconds
#
# Revision: 1
# Processed by: cddbd v1.5.2PL0 Copyright (c) Steve Scherf et al.
# Submitted via: ExactAudioCopyFreeDBPlugin 1.0
#
DISCID=c011ad0c
DTITLE=Various Artist - 2nd Burnley National Blues Festival
DYEAR=1990
DGENRE=Blues
TTITLE0=Buddy Guy - All Your Love
TTITLE1=Buddy Guy - When The Sun Goes Down
TTITLE2=Carey and Lurrie Bell - I'm Going Upstairs
TTITLE3=Carey and Lurrie Bell - It's So Easy To Love You
TTITLE4=Louisiana Red - Locked Up So Long
TTITLE5=Louisiana Red - No Luck
TTITLE6=Louisiana Red - I Wish I Could Lead My Life Again
TTITLE7=Angela Brown - Kitchen Man
TTITLE8=Angela Brown - Let's Move Together
TTITLE9=Angela Brown - I've Got A Good Thing
TTITLE10=Lucky Lopez Evans - Something Wrong With Me
TTITLE11=Lucky Lopez Evans - Paycheck
EXTD=
EXTT0=
EXTT1=
EXTT2=
EXTT3=
EXTT4=
EXTT5=
EXTT6=
EXTT7=
EXTT8=
EXTT9=
EXTT10=
EXTT11=
PLAYORDER=
